<?xml version="1.0" encoding="UTF-8"?>
<svg id="Camada_1" data-name="Camada 1" xmlns="http://www.w3.org/2000/svg" viewBox="0 0 815.52 149.76">
  <defs>
    <style>
      .cls-1 {
        fill: #2e4bff;
      }

      .cls-2 {
        fill: #fff;
      }
    </style>
  </defs>
  <path class="cls-2" d="M51.39,29.2l22.7,66.75h.27l21.48-66.75h30.04v97.06h-19.98V57.47h-.27l-23.79,68.78h-16.45l-23.79-68.1h-.27v68.1h-19.98V29.2h30.04Z"/>
  <path class="cls-2" d="M166.85,29.2v97.06h-21.34V29.2h21.34Z"/>
  <path class="cls-2" d="M207.68,29.2l40.51,65.11h.27V29.2h19.98v97.06h-21.34l-40.37-64.98h-.27v64.98h-19.98V29.2h21.21Z"/>
  <path class="cls-2" d="M329.94,29.2c6.25,0,12.07,1,17.47,2.99,5.39,1.99,10.06,4.98,14,8.97,3.94,3.99,7.02,8.97,9.24,14.95,2.22,5.98,3.33,13.01,3.33,21.07,0,7.07-.91,13.59-2.72,19.58-1.81,5.98-4.55,11.15-8.22,15.5-3.67,4.35-8.25,7.77-13.73,10.26-5.48,2.49-11.94,3.74-19.37,3.74h-41.87V29.2h41.87ZM328.45,108.31c3.08,0,6.07-.5,8.97-1.5,2.9-1,5.48-2.65,7.75-4.96,2.26-2.31,4.08-5.32,5.44-9.04,1.36-3.71,2.04-8.25,2.04-13.59,0-4.89-.48-9.31-1.43-13.25-.95-3.94-2.52-7.32-4.69-10.13-2.18-2.81-5.05-4.96-8.63-6.46-3.58-1.5-8-2.24-13.25-2.24h-15.22v61.17h19.03Z"/>
  <path class="cls-2" d="M410.83,29.2v79.12h47.31v17.94h-68.65V29.2h21.34Z"/>
  <path class="cls-2" d="M760.6,29.2c6.07,0,11.24.88,15.5,2.65,4.26,1.77,7.72,4.1,10.4,7,2.67,2.9,4.62,6.21,5.85,9.92,1.22,3.72,1.83,7.57,1.83,11.55s-.61,7.73-1.83,11.49c-1.22,3.76-3.17,7.09-5.85,9.99-2.67,2.9-6.14,5.23-10.4,7-4.26,1.77-9.43,2.65-15.5,2.65h-22.43v34.8h-21.34V29.2h43.77ZM754.75,74.87c2.45,0,4.8-.18,7.07-.54,2.26-.36,4.26-1.06,5.98-2.11,1.72-1.04,3.1-2.52,4.15-4.42,1.04-1.9,1.56-4.39,1.56-7.48s-.52-5.57-1.56-7.48c-1.04-1.9-2.43-3.38-4.15-4.42-1.72-1.04-3.72-1.74-5.98-2.11-2.27-.36-4.62-.54-7.07-.54h-16.58v29.09h16.58Z"/>
  <path class="cls-1" d="M701.27,67.64c-1.43-10.32-5.06-19.64-10.45-26.81-1.75-2.36-5.41-6.11-7.82-8.01-6.7-5.34-15.41-8.94-25.36-10.49-3.17-.48-10.94-.62-14.12-.24-14.21,1.71-27.68,8.6-42.64,21.79-3.64,3.2-42.51,42.15-43.88,43.41-12.55,11.59-22.47,17.17-33.13,18.66-2.39.33-7.03.33-9.38,0-6.02-.85-11.14-3.15-15.48-6.96-8.08-7.06-11.94-19.56-9.51-30.86,2.46-11.5,11.31-20.81,22.61-23.83,2.73-.72,5.14-1.01,8.36-1.01,5.7,0,10.29,1.14,16.01,3.95,3.06,1.5,6.07,3.34,9.24,5.68,4.35,3.21,10.41,2.64,14-1.4h0c4.01-4.51,3.35-11.5-1.45-15.16-11.15-8.52-20.8-12.67-32.37-14.26-1.07-.15-3.57-.22-6.44-.22-3.92,0-5.14.07-7.36.42-11.97,1.84-22.18,6.97-30.54,15.31-8.41,8.41-13.65,19.23-15.14,31.27-.35,2.85-.3,10.36.11,13.25,1.43,10.32,5.06,19.64,10.45,26.81,1.75,2.36,5.41,6.11,7.82,8.01,6.7,5.34,15.41,8.94,25.36,10.49,3.17.48,10.94.62,14.12.24,14.21-1.71,27.68-8.6,42.64-21.79,3.64-3.2,42.51-42.15,43.88-43.41,12.55-11.59,22.47-17.17,33.13-18.66,2.39-.33,7.03-.33,9.38,0,6.02.85,11.14,3.15,15.48,6.96,8.08,7.06,11.94,19.56,9.51,30.86-2.46,11.5-11.31,20.81-22.61,23.83-2.73.72-5.14,1.01-8.36,1.01-5.7,0-10.29-1.14-16.01-3.95-3.06-1.5-6.07-3.34-9.24-5.68-4.35-3.21-10.41-2.64-14,1.4h0c-4.01,4.51-3.35,11.5,1.45,15.16,11.15,8.52,20.8,12.67,32.37,14.26,1.07.15,3.57.22,6.44.22,3.92,0,5.14-.07,7.36-.42,11.97-1.84,22.18-6.97,30.54-15.31,8.41-8.41,13.65-19.23,15.14-31.27.35-2.85.3-10.36-.11-13.25Z"/>
</svg>