<?xml version="1.0" encoding="UTF-8"?>
<svg id="Camada_1" data-name="Camada 1" xmlns="http://www.w3.org/2000/svg" viewBox="0 0 278.11 148.7">
  <defs>
    <style>
      .cls-1 {
        fill: #2e4bff;
      }
    </style>
  </defs>
  <path class="cls-1" d="M256.42,67.11c-1.43-10.32-5.06-19.64-10.45-26.81-1.75-2.36-5.41-6.11-7.82-8.01-6.7-5.34-15.41-8.94-25.36-10.49-3.17-.48-10.94-.62-14.12-.24-14.21,1.71-27.68,8.6-42.64,21.79-3.64,3.2-42.51,42.15-43.88,43.41-12.55,11.59-22.47,17.17-33.13,18.66-2.39.33-7.03.33-9.38,0-6.02-.85-11.14-3.15-15.48-6.96-8.08-7.06-11.94-19.56-9.51-30.86,2.46-11.5,11.31-20.81,22.61-23.83,2.73-.72,5.14-1.01,8.36-1.01,5.7,0,10.29,1.14,16.01,3.95,3.06,1.5,6.07,3.34,9.24,5.68,4.35,3.21,10.41,2.64,14-1.4h0c4.01-4.51,3.35-11.5-1.45-15.16-11.15-8.52-20.8-12.67-32.37-14.26-1.07-.15-3.57-.22-6.44-.22-3.92,0-5.14.07-7.36.42-11.97,1.84-22.18,6.97-30.54,15.31-8.41,8.41-13.65,19.23-15.14,31.27-.35,2.85-.3,10.36.11,13.25,1.43,10.32,5.06,19.64,10.45,26.81,1.75,2.36,5.41,6.11,7.82,8.01,6.7,5.34,15.41,8.94,25.36,10.49,3.17.48,10.94.62,14.12.24,14.21-1.71,27.68-8.6,42.64-21.79,3.64-3.2,42.51-42.15,43.88-43.41,12.55-11.59,22.47-17.17,33.13-18.66,2.39-.33,7.03-.33,9.38,0,6.02.85,11.14,3.15,15.48,6.96,8.08,7.06,11.94,19.56,9.51,30.86-2.46,11.5-11.31,20.81-22.61,23.83-2.73.72-5.14,1.01-8.36,1.01-5.7,0-10.29-1.14-16.01-3.95-3.06-1.5-6.07-3.34-9.24-5.68-4.35-3.21-10.41-2.64-14,1.4h0c-4.01,4.51-3.35,11.5,1.45,15.16,11.15,8.52,20.8,12.67,32.37,14.26,1.07.15,3.57.22,6.44.22,3.92,0,5.14-.07,7.36-.42,11.97-1.84,22.18-6.97,30.54-15.31,8.41-8.41,13.65-19.23,15.14-31.27.35-2.85.3-10.36-.11-13.25Z"/>
</svg>